HIERARCHY
ROOT Hips
{
	OFFSET -0.001795 -0.223333 0.028219
	CHANNELS 6 Xposition Yposition Zposition Zrotation Yrotation Xrotation 
	JOINT LeftUpLeg
	{
		OFFSET 0.069520 -0.091406 -0.006815
		CHANNELS 3 Zrotation Yrotation Xrotation
		JOINT LeftLeg
		{
			OFFSET 0.034277 -0.375199 -0.004496
			CHANNELS 3 Zrotation Yrotation Xrotation
			JOINT LeftFoot
			{
				OFFSET -0.013596 -0.397961 -0.043693
				CHANNELS 3 Zrotation Yrotation Xrotation
				JOINT LeftToe
				{
					OFFSET 0.026358 -0.055791 0.119288
					CHANNELS 3 Zrotation Yrotation Xrotation
					End Site
					{
						OFFSET 0.000000 0.000000 0.000000
					}
				}
			}
		}
	}
	JOINT RightUpLeg
	{
		OFFSET -0.067670 -0.090522 -0.004320
		CHANNELS 3 Zrotation Yrotation Xrotation
		JOINT RightLeg
		{
			OFFSET -0.038290 -0.382569 -0.008850
			CHANNELS 3 Zrotation Yrotation Xrotation
			JOINT RightFoot
			{
				OFFSET 0.015774 -0.398415 -0.042312
				CHANNELS 3 Zrotation Yrotation Xrotation
				JOINT RightToe
				{
					OFFSET -0.025372 -0.048144 0.123348
					CHANNELS 3 Zrotation Yrotation Xrotation
					End Site
					{
						OFFSET 0.000000 0.000000 0.000000
					}
				}
			}
		}
	}
	JOINT Spine
	{
		OFFSET -0.002533 0.108963 -0.026696
		CHANNELS 3 Zrotation Yrotation Xrotation
		JOINT Spine1
		{
			OFFSET 0.005487 0.135180 0.001092
			CHANNELS 3 Zrotation Yrotation Xrotation
			JOINT Spine2
			{
				OFFSET 0.001457 0.052922 0.025425
				CHANNELS 3 Zrotation Yrotation Xrotation
				JOINT Neck
				{
					OFFSET -0.002778 0.213870 -0.042857
					CHANNELS 3 Zrotation Yrotation Xrotation
					JOINT Head
					{
						OFFSET 0.005152 0.064970 0.051349
						CHANNELS 3 Zrotation Yrotation Xrotation
						End Site
						{
							OFFSET 0.000000 0.000000 0.000000
						}
					}
				}
				JOINT LeftShoulder
				{
					OFFSET 0.078845 0.121749 -0.034090
					CHANNELS 3 Zrotation Yrotation Xrotation
					JOINT LeftArm
					{
						OFFSET 0.090977 0.030469 -0.008868
						CHANNELS 3 Zrotation Yrotation Xrotation
						JOINT LeftForeArm
						{
							OFFSET 0.259612 -0.012772 -0.027456
							CHANNELS 3 Zrotation Yrotation Xrotation
							JOINT LeftHand
							{
								OFFSET 0.249234 0.008986 -0.001171
								CHANNELS 3 Zrotation Yrotation Xrotation
								End Site
								{
									OFFSET 0.000000 0.000000 0.000000
								}
							}
						}
					}
				}
				JOINT RightShoulder
				{
					OFFSET -0.081759 0.118833 -0.038615
					CHANNELS 3 Zrotation Yrotation Xrotation
					JOINT RightArm
					{
						OFFSET -0.096012 0.032551 -0.009143
						CHANNELS 3 Zrotation Yrotation Xrotation
						JOINT RightForeArm
						{
							OFFSET -0.253742 -0.013329 -0.021401
							CHANNELS 3 Zrotation Yrotation Xrotation
							JOINT RightHand
							{
								OFFSET -0.255298 0.007772 -0.005559
								CHANNELS 3 Zrotation Yrotation Xrotation
								End Site
								{
									OFFSET 0.000000 0.000000 0.000000
								}
							}
						}
					}
				}
			}
		}
	}
}
MOTION
Frames: 7
Frame Time: 0.050000
-0.029251 0.946409 0.362193 1.001520 13.558524 15.121278 5.453664 -1.746495 -21.475539 -4.928004 0.107365 15.941799 2.750425 5.543196 -0.816012 0.000000 0.000000 0.000000 -5.552251 0.373487 -35.590804 5.485781 -1.209367 14.007843 -3.687730 -10.605743 17.088237 0.000000 0.000000 0.000000 2.647392 -3.083865 28.041182 8.964334 -1.702217 -18.053355 3.166356 2.543027 28.432259 -1.134711 2.866762 -13.271239 0.000000 0.000000 0.000000 -25.467104 -5.033527 -1.892797 -46.781323 -8.711713 -3.858487 -26.228890 -47.326805 13.105441 0.000000 0.000000 0.000000 10.912113 20.979904 11.239262 33.091646 32.214734 2.603115 -15.505617 26.528379 -1.966897 0.000000 0.000000 0.000000 
-0.037212 0.945966 0.363232 1.845518 14.284926 17.345054 5.321718 -2.032499 -23.700182 -6.014446 0.350399 13.970139 2.414866 5.478986 0.302223 0.000000 0.000000 0.000000 -5.215094 0.287483 -37.840205 5.026361 -1.080082 13.597389 -4.288169 -11.563222 17.635719 0.000000 0.000000 0.000000 3.044804 -3.997126 32.314137 9.010551 -1.519988 -19.380642 4.013747 4.442738 29.068601 -0.862516 2.989538 -14.104428 0.000000 0.000000 0.000000 -25.236606 -6.666027 -1.541748 -45.589670 -8.261854 -3.813625 -29.354112 -51.416223 15.598630 0.000000 0.000000 0.000000 10.669150 23.635336 12.881518 27.299350 33.504576 1.826070 -17.865042 23.384989 -2.196335 0.000000 0.000000 0.000000 
-0.044219 0.945402 0.363978 2.570995 14.845920 19.995569 4.921410 -2.375880 -25.865477 -5.369895 0.251791 12.306508 1.950297 5.127043 1.327374 0.000000 0.000000 0.000000 -5.088044 0.109943 -40.208925 4.405624 -0.878933 12.542540 -4.066631 -11.158743 18.437428 0.000000 0.000000 0.000000 3.577862 -4.906904 35.499018 8.184796 -1.194908 -20.217542 5.481084 6.459202 29.840686 0.619162 2.428642 -16.191339 0.000000 0.000000 0.000000 -24.200321 -8.119816 -1.288207 -45.927929 -8.387733 -3.690862 -32.814523 -55.776454 18.581521 0.000000 0.000000 0.000000 7.123743 25.063677 12.703083 22.896379 36.049154 1.767807 -19.011281 19.642306 -1.984161 0.000000 0.000000 0.000000 
-0.050592 0.944837 0.365108 3.261711 14.997029 21.954004 4.197439 -2.711984 -27.539568 -4.584414 0.155148 10.804266 1.436184 4.395740 1.837665 0.000000 0.000000 0.000000 -5.157696 -0.066800 -41.979566 3.800523 -0.711404 12.153226 -4.299862 -11.536418 18.535406 0.000000 0.000000 0.000000 3.374372 -5.610322 39.153079 7.247639 -0.856575 -21.239759 7.081714 8.756500 31.273929 2.242574 1.753784 -17.069225 0.000000 0.000000 0.000000 -22.007199 -9.006104 -1.164247 -48.059511 -8.239908 -4.031710 -37.983755 -59.306587 22.499721 0.000000 0.000000 0.000000 4.700829 26.655647 12.847947 17.296129 37.832727 1.047449 -20.603648 15.307799 -1.630803 0.000000 0.000000 0.000000 
-0.056343 0.942537 0.366601 3.768738 15.564836 23.880765 3.725552 -3.162458 -29.881831 -4.096202 0.076369 10.410901 0.813780 3.812312 2.950119 0.000000 0.000000 0.000000 -5.699321 -0.590129 -44.417443 4.254759 -0.860762 12.919934 -4.477953 -11.794885 19.042779 0.000000 0.000000 0.000000 3.437910 -6.390972 41.928856 6.307593 -0.565377 -22.026860 8.798398 11.253042 32.052850 3.457130 1.538687 -18.658675 0.000000 0.000000 0.000000 -20.366647 -9.651846 -1.438872 -49.348461 -7.100698 -4.556935 -45.127174 -60.779511 26.781094 0.000000 0.000000 0.000000 2.054940 27.172975 12.381958 11.761477 39.107314 0.226903 -20.949078 11.167161 -1.066586 0.000000 0.000000 0.000000 
-0.061314 0.936229 0.368263 5.040492 16.536342 26.167272 3.196538 -3.702417 -32.082119 -3.619286 -0.015717 10.296196 1.109000 4.155884 2.269452 0.000000 0.000000 0.000000 -6.366058 -1.425529 -47.402966 4.028935 -0.879500 14.337113 -4.882453 -12.275424 17.813713 0.000000 0.000000 0.000000 3.599162 -7.279427 44.289508 5.319645 -0.237327 -23.353046 10.211926 13.355412 32.979048 3.843753 1.923798 -20.658587 0.000000 0.000000 0.000000 -18.536837 -10.575133 -1.384526 -50.990032 -5.697420 -5.390552 -53.754507 -61.741109 31.997139 0.000000 0.000000 0.000000 0.049493 27.442808 11.991280 7.014689 38.895350 -0.610725 -20.660056 7.230204 -0.457427 0.000000 0.000000 0.000000 
-0.065283 0.929052 0.370559 5.945655 17.004855 28.357631 3.267611 -4.191731 -34.670451 -3.632757 -0.051439 10.973528 1.054587 3.493966 1.205438 0.000000 0.000000 0.000000 -7.106518 -2.321586 -50.674305 4.480737 -1.109065 16.536440 -4.964935 -12.358925 16.615274 0.000000 0.000000 0.000000 3.282389 -7.844148 46.506601 4.705178 -0.021206 -24.327656 10.773941 15.277217 32.850612 4.437617 1.918366 -21.394256 0.000000 0.000000 0.000000 -18.056066 -11.599522 -1.395121 -51.452682 -4.832883 -5.678330 -56.030874 -62.172679 33.059152 0.000000 0.000000 0.000000 0.333409 28.486183 12.972154 1.556932 37.760577 -1.840669 -20.595527 3.878895 0.053714 0.000000 0.000000 0.000000 
